<?xml version="1.0" encoding="utf-8"?>
<!-- Generator: Adobe Illustrator 22.0.1, SVG Export Plug-In . SVG Version: 6.00 Build 0)  -->
<svg version="1.1" xmlns="http://www.w3.org/2000/svg" xmlns:xlink="http://www.w3.org/1999/xlink" x="0px" y="0px"
	 viewBox="0 0 150 150" style="enable-background:new 0 0 150 150;" xml:space="preserve">
<style type="text/css">
	.st0{fill:#4B5320;}
	.st1{opacity:0.42;fill:#4B5320;}
	.st2{fill:#FFFFFF;stroke:#007CAF;stroke-width:3;stroke-miterlimit:10;}
	.st3{fill:#E41326;stroke:#E41326;stroke-width:0.5;stroke-linejoin:round;stroke-miterlimit:10;}
	.st4{fill:none;stroke:#CCCCCC;stroke-width:9;stroke-linejoin:round;stroke-miterlimit:10;}
	.st5{fill:#E41326;}
	.st6{fill:none;stroke:#AAAAAA;stroke-width:9;stroke-linejoin:round;stroke-miterlimit:10;}
	.st7{fill:#E31E28;stroke:#FFFFFF;stroke-width:2;stroke-linejoin:round;stroke-miterlimit:10;}
	.st8{fill:#FFFFFF;}
	.st9{fill:#E41326;stroke:#E41326;stroke-linejoin:round;stroke-miterlimit:10;}
	.st10{fill:#FFFFFF;stroke:#AAAAAA;stroke-width:4.1005;stroke-linejoin:round;stroke-miterlimit:10;}
	.st11{fill:#FFFFFF;stroke:#AAAAAA;stroke-width:8.8897;stroke-linejoin:round;stroke-miterlimit:10;}
	.st12{fill:#E41326;stroke:#E41326;stroke-width:0.4556;stroke-linejoin:round;stroke-miterlimit:10;}
	.st13{fill:none;stroke:#E41326;stroke-width:8;stroke-linejoin:round;stroke-miterlimit:10;}
	.st14{fill:none;stroke:#CCCCCC;stroke-width:2;stroke-miterlimit:10;}
	.st15{fill:#FFFFFF;stroke:#FFFDFD;stroke-linejoin:round;stroke-miterlimit:10;}
	.st16{fill:#E11B22;}
	.st17{fill:#E41326;stroke:#E41326;stroke-width:0.4386;stroke-linejoin:round;stroke-miterlimit:10;}
	.st18{fill:#E41326;stroke:#E41326;stroke-width:0.32;stroke-linejoin:round;stroke-miterlimit:10;}
	.st19{fill:none;stroke:#E41326;stroke-width:6;stroke-linejoin:round;stroke-miterlimit:10;}
	.st20{fill:#E41326;stroke:#E31E28;stroke-miterlimit:10;}
	.st21{fill:none;stroke:#E41326;stroke-width:5;stroke-linejoin:round;stroke-miterlimit:10;}
	.st22{fill:none;stroke:#E41326;stroke-width:3;stroke-linecap:round;stroke-miterlimit:10;}
	.st23{fill:none;stroke:#CCCCCC;stroke-linejoin:round;stroke-miterlimit:10;}
	.st24{fill:#E41226;}
	.st25{fill:none;stroke:#E41326;stroke-width:7;stroke-linejoin:round;stroke-miterlimit:10;}
	.st26{fill:#E31E28;}
	.st27{fill:#F45D6B;}
	.st28{fill:#4B13B7;}
	.st29{fill:#FCFAFA;}
	.st30{fill:#E41326;stroke:#FFFFFF;stroke-linejoin:round;stroke-miterlimit:10;}
	.st31{fill:#E41326;stroke:#E41326;stroke-miterlimit:10;}
	.st32{fill:#E31E28;stroke:#E41326;stroke-linejoin:round;stroke-miterlimit:10;}
	.st33{fill:none;stroke:#E41326;stroke-width:7;stroke-linecap:round;stroke-miterlimit:10;}
	.st34{fill:#424242;}
	.st35{fill:none;stroke:#000000;stroke-miterlimit:10;}
	.st36{fill:#CC5500;}
	.st37{fill:#FFFFFF;stroke:#E41326;stroke-miterlimit:10;}
	.st38{fill:#ECEEEE;}
	.st39{fill:#302F2F;}
	.st40{fill:#007CAF;stroke:#FFFFFF;stroke-width:2;stroke-miterlimit:10;}
	.st41{fill:none;stroke:#0B0C0C;stroke-miterlimit:10;}
	.st42{fill:none;stroke:#007CAF;stroke-width:4;stroke-miterlimit:10;}
	.st43{fill:#007CAF;stroke:#FFFFFF;stroke-miterlimit:10;}
	.st44{opacity:0.42;fill:#999999;}
	.st45{fill:none;stroke:#424242;stroke-width:5;stroke-miterlimit:10;}
	.st46{fill:#BDD68B;}
	.st47{fill:#E41326;stroke:#E41326;stroke-width:0.9265;stroke-miterlimit:10;}
	.st48{fill:#E41326;stroke:#E41326;stroke-width:0.3452;stroke-linejoin:round;stroke-miterlimit:10;}
	.st49{fill:#E41326;stroke:#E41326;stroke-width:0.4064;stroke-linejoin:round;stroke-miterlimit:10;}
	.st50{fill:none;stroke:#E41326;stroke-width:2;stroke-miterlimit:10;}
	.st51{fill:#E41326;stroke:#E41326;stroke-width:0.8495;stroke-miterlimit:10;}
	.st52{fill:none;stroke:#E41326;stroke-width:1.699;stroke-miterlimit:10;}
	.st53{fill:none;stroke:#E41326;stroke-width:0.8495;stroke-miterlimit:10;}
	.st54{fill:#DBDCDE;}
	.st55{fill:#E14949;}
	.st56{fill:#F1EBDC;}
	.st57{fill:#B5B5B5;}
	.st58{fill:#E31F27;}
	.st59{fill:#FFFFFF;stroke:#E31527;stroke-miterlimit:10;}
	.st60{fill:#F1F1F1;}
	.st61{fill:#007CAF;}
	.st62{fill:none;stroke:#007CAF;stroke-width:3;stroke-miterlimit:10;}
	.st63{fill:#FFFFFF;stroke:#E11B22;stroke-width:3;stroke-miterlimit:10;}
	.st64{fill:#E11B22;stroke:#FFFFFF;stroke-width:2;stroke-miterlimit:10;}
	.st65{fill:none;stroke:#3D3D3D;stroke-width:5;stroke-linejoin:bevel;stroke-miterlimit:10;}
	.st66{fill:#3D3D3D;}
	.st67{fill:#FFFFFF;stroke:#AAAAAA;stroke-width:4.118;stroke-linejoin:round;stroke-miterlimit:10;}
	.st68{fill:#FFFFFF;stroke:#AAAAAA;stroke-width:4.1834;stroke-linejoin:round;stroke-miterlimit:10;}
	.st69{fill:#D6001B;}
	.st70{fill:#E41326;stroke:#E41326;stroke-width:0.4046;stroke-linejoin:round;stroke-miterlimit:10;}
	.st71{fill:#E41326;stroke:#E41326;stroke-width:0.5423;stroke-linejoin:round;stroke-miterlimit:10;}
	.st72{fill:#E41326;stroke:#E41326;stroke-width:0.4695;stroke-linejoin:round;stroke-miterlimit:10;}
	.st73{fill:#E41326;stroke:#E41326;stroke-width:0.5205;stroke-linejoin:round;stroke-miterlimit:10;}
	.st74{fill:#E41326;stroke:#FFFFFF;stroke-width:0.25;stroke-miterlimit:10;}
	.st75{fill:#FFFFFF;stroke:#FFFFFF;stroke-width:0.25;stroke-miterlimit:10;}
</style>
<g id="Layer_1">
	<circle class="st11" cx="74.5" cy="75.5" r="68"/>
	<g>
		<circle class="st17" cx="71.7" cy="67.3" r="12"/>
		<rect x="59.2" y="82.5" class="st17" width="25.1" height="40"/>
		<path class="st17" d="M104.8,69.4L85,91.1c-1.8,2-5,2.1-7,0.3l0,0c-2-1.8-2.1-5-0.3-7l19.8-21.7c1.8-2,5-2.1,7-0.3l0,0
			C106.5,64.3,106.6,67.4,104.8,69.4z"/>
		<path class="st17" d="M47.6,62.1l19,22.4c1.8,2.1,1.5,5.2-0.6,7l0,0c-2.1,1.8-5.2,1.5-7-0.6L40,68.5c-1.8-2.1-1.5-5.2,0.6-7l0,0
			C42.8,59.8,45.9,60,47.6,62.1z"/>
	</g>
	<g>
		<path class="st18" d="M90.5,59.5c0,0,2.9,0.1,6.1-2.7c1.5,0.5,3.1,0.7,4.8,0.7c7.8,0,14.1-5.2,14.1-11.5s-6.3-11.5-14.1-11.5
			c-7.8,0-14.1,5.2-14.1,11.5c0,3.3,1.7,6.3,4.5,8.4c-0.2,1-0.7,2.2-2.2,3.1C86.4,59.6,90.5,59.5,90.5,59.5z"/>
		<path class="st8" d="M108.8,44.2H93.9c-0.4,0-0.7-0.3-0.7-0.7l0,0c0-0.4,0.3-0.7,0.7-0.7h14.9c0.4,0,0.7,0.3,0.7,0.7l0,0
			C109.5,43.9,109.2,44.2,108.8,44.2z"/>
		<path class="st8" d="M103.8,47.6h-9.9c-0.4,0-0.7-0.3-0.7-0.7l0,0c0-0.4,0.3-0.7,0.7-0.7h9.9c0.4,0,0.7,0.3,0.7,0.7l0,0
			C104.6,47.3,104.2,47.6,103.8,47.6z"/>
	</g>
</g>
<g id="Layer_3">
</g>
</svg>
